<svg width="400" height="300" viewBox="0 0 400 300" fill="none" xmlns="http://www.w3.org/2000/svg">
  <defs>
    <!-- Gradient definitions -->
    <linearGradient id="accentGradient" x1="0%" y1="0%" x2="100%" y2="100%">
      <stop offset="0%" style="stop-color:#7c3aed;stop-opacity:1" />
      <stop offset="100%" style="stop-color:#06b6d4;stop-opacity:1" />
    </linearGradient>
    <linearGradient id="documentGradient" x1="0%" y1="0%" x2="100%" y2="100%">
      <stop offset="0%" style="stop-color:#1e293b;stop-opacity:1" />
      <stop offset="100%" style="stop-color:#334155;stop-opacity:1" />
    </linearGradient>
    <linearGradient id="shieldGradient" x1="0%" y1="0%" x2="100%" y2="100%">
      <stop offset="0%" style="stop-color:#10b981;stop-opacity:1" />
      <stop offset="100%" style="stop-color:#059669;stop-opacity:1" />
    </linearGradient>
    <!-- Glow filter -->
    <filter id="glow" x="-50%" y="-50%" width="200%" height="200%">
      <feGaussianBlur stdDeviation="3" result="coloredBlur"/>
      <feMerge> 
        <feMergeNode in="coloredBlur"/>
        <feMergeNode in="SourceGraphic"/> 
      </feMerge>
    </filter>
  </defs>
  
  <!-- Background glow -->
  <circle cx="200" cy="150" r="120" fill="url(#accentGradient)" opacity="0.1" filter="url(#glow)"/>
  
  <!-- Document -->
  <rect x="120" y="80" width="120" height="140" rx="8" fill="url(#documentGradient)" stroke="url(#accentGradient)" stroke-width="2"/>
  
  <!-- Document lines -->
  <rect x="135" y="100" width="90" height="3" rx="1.5" fill="#64748b"/>
  <rect x="135" y="115" width="70" height="3" rx="1.5" fill="#64748b"/>
  <rect x="135" y="130" width="85" height="3" rx="1.5" fill="#64748b"/>
  <rect x="135" y="145" width="60" height="3" rx="1.5" fill="#64748b"/>
  
  <!-- Document header -->
  <rect x="135" y="90" width="50" height="6" rx="3" fill="url(#accentGradient)"/>
  
  <!-- Shield background -->
  <path d="M280 120 L320 120 L320 140 L300 160 L280 140 Z" fill="url(#shieldGradient)" filter="url(#glow)"/>
  
  <!-- Shield border -->
  <path d="M280 120 L320 120 L320 140 L300 160 L280 140 Z" fill="none" stroke="#ffffff" stroke-width="2" opacity="0.3"/>
  
  <!-- Checkmark -->
  <path d="M290 135 L295 140 L310 125" stroke="#ffffff" stroke-width="3" stroke-linecap="round" stroke-linejoin="round" fill="none"/>
  
  <!-- Connecting line with animation -->
  <line x1="240" y1="150" x2="280" y2="140" stroke="url(#accentGradient)" stroke-width="2" stroke-dasharray="5,5" opacity="0.7">
    <animate attributeName="stroke-dashoffset" values="0;10" dur="2s" repeatCount="indefinite"/>
  </line>
  
  <!-- Floating particles -->
  <circle cx="160" cy="60" r="2" fill="url(#accentGradient)" opacity="0.6">
    <animate attributeName="cy" values="60;50;60" dur="3s" repeatCount="indefinite"/>
  </circle>
  <circle cx="260" cy="70" r="1.5" fill="url(#accentGradient)" opacity="0.4">
    <animate attributeName="cy" values="70;60;70" dur="4s" repeatCount="indefinite"/>
  </circle>
  <circle cx="320" cy="90" r="1" fill="url(#accentGradient)" opacity="0.5">
    <animate attributeName="cy" values="90;80;90" dur="2.5s" repeatCount="indefinite"/>
  </circle>
</svg>