<svg width="1920" height="1080" viewBox="0 0 1920 1080" fill="none" xmlns="http://www.w3.org/2000/svg">
  <!-- Gradient Background -->
  <defs>
    <linearGradient id="bgGradient" x1="0%" y1="0%" x2="100%" y2="100%">
      <stop offset="0%" style="stop-color:#1e3a8a;stop-opacity:1" />
      <stop offset="50%" style="stop-color:#3b82f6;stop-opacity:1" />
      <stop offset="100%" style="stop-color:#60a5fa;stop-opacity:1" />
    </linearGradient>
    <radialGradient id="circleGradient" cx="50%" cy="50%" r="50%">
      <stop offset="0%" style="stop-color:#ffffff;stop-opacity:0.1" />
      <stop offset="100%" style="stop-color:#ffffff;stop-opacity:0" />
    </radialGradient>
  </defs>
  
  <!-- Main Background -->
  <rect width="1920" height="1080" fill="url(#bgGradient)"/>
  
  <!-- Blockchain Network Pattern -->
  <g opacity="0.3">
    <!-- Nodes -->
    <circle cx="200" cy="200" r="8" fill="#ffffff" opacity="0.6"/>
    <circle cx="400" cy="150" r="6" fill="#ffffff" opacity="0.5"/>
    <circle cx="600" cy="250" r="10" fill="#ffffff" opacity="0.7"/>
    <circle cx="800" cy="180" r="7" fill="#ffffff" opacity="0.6"/>
    <circle cx="1000" cy="220" r="9" fill="#ffffff" opacity="0.8"/>
    <circle cx="1200" cy="160" r="5" fill="#ffffff" opacity="0.4"/>
    <circle cx="1400" cy="280" r="8" fill="#ffffff" opacity="0.6"/>
    <circle cx="1600" cy="200" r="6" fill="#ffffff" opacity="0.5"/>
    
    <circle cx="150" cy="400" r="7" fill="#ffffff" opacity="0.5"/>
    <circle cx="350" cy="450" r="9" fill="#ffffff" opacity="0.7"/>
    <circle cx="550" cy="380" r="6" fill="#ffffff" opacity="0.6"/>
    <circle cx="750" cy="420" r="8" fill="#ffffff" opacity="0.8"/>
    <circle cx="950" cy="460" r="5" fill="#ffffff" opacity="0.4"/>
    <circle cx="1150" cy="390" r="10" fill="#ffffff" opacity="0.7"/>
    <circle cx="1350" cy="440" r="7" fill="#ffffff" opacity="0.6"/>
    <circle cx="1550" cy="410" r="8" fill="#ffffff" opacity="0.5"/>
    
    <circle cx="250" cy="600" r="6" fill="#ffffff" opacity="0.6"/>
    <circle cx="450" cy="650" r="8" fill="#ffffff" opacity="0.7"/>
    <circle cx="650" cy="580" r="9" fill="#ffffff" opacity="0.8"/>
    <circle cx="850" cy="620" r="7" fill="#ffffff" opacity="0.5"/>
    <circle cx="1050" cy="660" r="10" fill="#ffffff" opacity="0.6"/>
    <circle cx="1250" cy="590" r="6" fill="#ffffff" opacity="0.4"/>
    <circle cx="1450" cy="640" r="8" fill="#ffffff" opacity="0.7"/>
    <circle cx="1650" cy="610" r="5" fill="#ffffff" opacity="0.5"/>
    
    <!-- Connection Lines -->
    <line x1="200" y1="200" x2="400" y2="150" stroke="#ffffff" stroke-width="1" opacity="0.3"/>
    <line x1="400" y1="150" x2="600" y2="250" stroke="#ffffff" stroke-width="1" opacity="0.3"/>
    <line x1="600" y1="250" x2="800" y2="180" stroke="#ffffff" stroke-width="1" opacity="0.3"/>
    <line x1="800" y1="180" x2="1000" y2="220" stroke="#ffffff" stroke-width="1" opacity="0.3"/>
    <line x1="1000" y1="220" x2="1200" y2="160" stroke="#ffffff" stroke-width="1" opacity="0.3"/>
    <line x1="1200" y1="160" x2="1400" y2="280" stroke="#ffffff" stroke-width="1" opacity="0.3"/>
    <line x1="1400" y1="280" x2="1600" y2="200" stroke="#ffffff" stroke-width="1" opacity="0.3"/>
    
    <line x1="150" y1="400" x2="350" y2="450" stroke="#ffffff" stroke-width="1" opacity="0.3"/>
    <line x1="350" y1="450" x2="550" y2="380" stroke="#ffffff" stroke-width="1" opacity="0.3"/>
    <line x1="550" y1="380" x2="750" y2="420" stroke="#ffffff" stroke-width="1" opacity="0.3"/>
    <line x1="750" y1="420" x2="950" y2="460" stroke="#ffffff" stroke-width="1" opacity="0.3"/>
    <line x1="950" y1="460" x2="1150" y2="390" stroke="#ffffff" stroke-width="1" opacity="0.3"/>
    <line x1="1150" y1="390" x2="1350" y2="440" stroke="#ffffff" stroke-width="1" opacity="0.3"/>
    <line x1="1350" y1="440" x2="1550" y2="410" stroke="#ffffff" stroke-width="1" opacity="0.3"/>
    
    <!-- Vertical connections -->
    <line x1="200" y1="200" x2="150" y2="400" stroke="#ffffff" stroke-width="1" opacity="0.2"/>
    <line x1="400" y1="150" x2="350" y2="450" stroke="#ffffff" stroke-width="1" opacity="0.2"/>
    <line x1="600" y1="250" x2="550" y2="380" stroke="#ffffff" stroke-width="1" opacity="0.2"/>
    <line x1="800" y1="180" x2="750" y2="420" stroke="#ffffff" stroke-width="1" opacity="0.2"/>
    <line x1="1000" y1="220" x2="950" y2="460" stroke="#ffffff" stroke-width="1" opacity="0.2"/>
    <line x1="1200" y1="160" x2="1150" y2="390" stroke="#ffffff" stroke-width="1" opacity="0.2"/>
    
    <line x1="350" y1="450" x2="250" y2="600" stroke="#ffffff" stroke-width="1" opacity="0.2"/>
    <line x1="550" y1="380" x2="450" y2="650" stroke="#ffffff" stroke-width="1" opacity="0.2"/>
    <line x1="750" y1="420" x2="650" y2="580" stroke="#ffffff" stroke-width="1" opacity="0.2"/>
    <line x1="950" y1="460" x2="850" y2="620" stroke="#ffffff" stroke-width="1" opacity="0.2"/>
    <line x1="1150" y1="390" x2="1050" y2="660" stroke="#ffffff" stroke-width="1" opacity="0.2"/>
    <line x1="1350" y1="440" x2="1250" y2="590" stroke="#ffffff" stroke-width="1" opacity="0.2"/>
  </g>
  
  <!-- Floating Geometric Shapes -->
  <g opacity="0.1">
    <polygon points="100,800 150,750 200,800 150,850" fill="#ffffff"/>
    <polygon points="1700,300 1750,250 1800,300 1750,350" fill="#ffffff"/>
    <polygon points="300,900 350,850 400,900 350,950" fill="#ffffff"/>
    <polygon points="1500,800 1550,750 1600,800 1550,850" fill="#ffffff"/>
  </g>
  
  <!-- Subtle Light Rays -->
  <g opacity="0.05">
    <path d="M960 0 L980 1080 L940 1080 Z" fill="#ffffff"/>
    <path d="M480 0 L500 1080 L460 1080 Z" fill="#ffffff"/>
    <path d="M1440 0 L1460 1080 L1420 1080 Z" fill="#ffffff"/>
  </g>
</svg>