<svg width="1920" height="1080" viewBox="0 0 1920 1080" fill="none" xmlns="http://www.w3.org/2000/svg">
  <!-- Gradient Background -->
  <defs>
    <linearGradient id="issuerBgGradient" x1="0%" y1="0%" x2="100%" y2="100%">
      <stop offset="0%" style="stop-color:#065f46;stop-opacity:1" />
      <stop offset="50%" style="stop-color:#059669;stop-opacity:1" />
      <stop offset="100%" style="stop-color:#10b981;stop-opacity:1" />
    </linearGradient>
    <radialGradient id="documentGlow" cx="50%" cy="50%" r="30%">
      <stop offset="0%" style="stop-color:#ffffff;stop-opacity:0.1" />
      <stop offset="100%" style="stop-color:#ffffff;stop-opacity:0" />
    </radialGradient>
  </defs>
  
  <!-- Main Background -->
  <rect width="1920" height="1080" fill="url(#issuerBgGradient)"/>
  
  <!-- Document Icons Pattern -->
  <g opacity="0.15">
    <!-- Large Documents -->
    <g transform="translate(150, 100)">
      <rect x="0" y="0" width="80" height="100" rx="8" fill="#ffffff" opacity="0.3"/>
      <rect x="10" y="15" width="60" height="3" fill="#ffffff" opacity="0.5"/>
      <rect x="10" y="25" width="50" height="3" fill="#ffffff" opacity="0.4"/>
      <rect x="10" y="35" width="55" height="3" fill="#ffffff" opacity="0.4"/>
      <rect x="10" y="45" width="45" height="3" fill="#ffffff" opacity="0.4"/>
      <polygon points="60,0 80,20 60,20" fill="#ffffff" opacity="0.2"/>
    </g>
    
    <g transform="translate(1600, 200)">
      <rect x="0" y="0" width="70" height="90" rx="6" fill="#ffffff" opacity="0.25"/>
      <rect x="8" y="12" width="54" height="2" fill="#ffffff" opacity="0.4"/>
      <rect x="8" y="20" width="45" height="2" fill="#ffffff" opacity="0.3"/>
      <rect x="8" y="28" width="50" height="2" fill="#ffffff" opacity="0.3"/>
      <polygon points="55,0 70,15 55,15" fill="#ffffff" opacity="0.2"/>
    </g>
    
    <g transform="translate(300, 800)">
      <rect x="0" y="0" width="75" height="95" rx="7" fill="#ffffff" opacity="0.2"/>
      <rect x="9" y="14" width="57" height="2.5" fill="#ffffff" opacity="0.4"/>
      <rect x="9" y="23" width="48" height="2.5" fill="#ffffff" opacity="0.3"/>
      <rect x="9" y="32" width="52" height="2.5" fill="#ffffff" opacity="0.3"/>
      <polygon points="58,0 75,17 58,17" fill="#ffffff" opacity="0.2"/>
    </g>
    
    <g transform="translate(1400, 750)">
      <rect x="0" y="0" width="65" height="85" rx="5" fill="#ffffff" opacity="0.3"/>
      <rect x="7" y="11" width="51" height="2" fill="#ffffff" opacity="0.5"/>
      <rect x="7" y="18" width="42" height="2" fill="#ffffff" opacity="0.4"/>
      <rect x="7" y="25" width="47" height="2" fill="#ffffff" opacity="0.4"/>
      <polygon points="52,0 65,13 52,13" fill="#ffffff" opacity="0.2"/>
    </g>
  </g>
  
  <!-- Certificate Seals -->
  <g opacity="0.1">
    <g transform="translate(800, 150)">
      <circle cx="0" cy="0" r="40" fill="none" stroke="#ffffff" stroke-width="3" opacity="0.4"/>
      <circle cx="0" cy="0" r="30" fill="none" stroke="#ffffff" stroke-width="2" opacity="0.3"/>
      <circle cx="0" cy="0" r="20" fill="none" stroke="#ffffff" stroke-width="1" opacity="0.2"/>
      <polygon points="-15,-10 15,-10 20,0 15,10 -15,10 -20,0" fill="#ffffff" opacity="0.3"/>
    </g>
    
    <g transform="translate(1200, 600)">
      <circle cx="0" cy="0" r="35" fill="none" stroke="#ffffff" stroke-width="2" opacity="0.3"/>
      <circle cx="0" cy="0" r="25" fill="none" stroke="#ffffff" stroke-width="1.5" opacity="0.2"/>
      <polygon points="-12,-8 12,-8 16,0 12,8 -12,8 -16,0" fill="#ffffff" opacity="0.25"/>
    </g>
    
    <g transform="translate(500, 500)">
      <circle cx="0" cy="0" r="30" fill="none" stroke="#ffffff" stroke-width="2" opacity="0.3"/>
      <circle cx="0" cy="0" r="20" fill="none" stroke="#ffffff" stroke-width="1" opacity="0.2"/>
      <polygon points="-10,-6 10,-6 13,0 10,6 -10,6 -13,0" fill="#ffffff" opacity="0.2"/>
    </g>
  </g>
  
  <!-- Floating Upload Icons -->
  <g opacity="0.08">
    <g transform="translate(200, 400)">
      <rect x="-15" y="-10" width="30" height="20" rx="3" fill="#ffffff"/>
      <polygon points="-5,-5 0,-10 5,-5" fill="#ffffff"/>
      <rect x="-1" y="-5" width="2" height="8" fill="#ffffff"/>
    </g>
    
    <g transform="translate(1500, 300)">
      <rect x="-12" y="-8" width="24" height="16" rx="2" fill="#ffffff"/>
      <polygon points="-4,-4 0,-8 4,-4" fill="#ffffff"/>
      <rect x="-1" y="-4" width="2" height="6" fill="#ffffff"/>
    </g>
    
    <g transform="translate(700, 850)">
      <rect x="-18" y="-12" width="36" height="24" rx="4" fill="#ffffff"/>
      <polygon points="-6,-6 0,-12 6,-6" fill="#ffffff"/>
      <rect x="-1.5" y="-6" width="3" height="10" fill="#ffffff"/>
    </g>
  </g>
  
  <!-- Digital Signature Lines -->
  <g opacity="0.06">
    <g transform="translate(100, 600)">
      <path d="M0,0 Q20,-10 40,0 Q60,10 80,0 Q100,-5 120,0" stroke="#ffffff" stroke-width="2" fill="none"/>
      <circle cx="0" cy="0" r="3" fill="#ffffff"/>
      <circle cx="120" cy="0" r="3" fill="#ffffff"/>
    </g>
    
    <g transform="translate(1300, 450)">
      <path d="M0,0 Q15,-8 30,0 Q45,8 60,0 Q75,-4 90,0" stroke="#ffffff" stroke-width="1.5" fill="none"/>
      <circle cx="0" cy="0" r="2" fill="#ffffff"/>
      <circle cx="90" cy="0" r="2" fill="#ffffff"/>
    </g>
    
    <g transform="translate(400, 250)">
      <path d="M0,0 Q25,-12 50,0 Q75,12 100,0 Q125,-6 150,0" stroke="#ffffff" stroke-width="2" fill="none"/>
      <circle cx="0" cy="0" r="3" fill="#ffffff"/>
      <circle cx="150" cy="0" r="3" fill="#ffffff"/>
    </g>
  </g>
  
  <!-- Checkmark Patterns -->
  <g opacity="0.1">
    <g transform="translate(1000, 800)">
      <circle cx="0" cy="0" r="25" fill="none" stroke="#ffffff" stroke-width="2"/>
      <path d="M-8,0 L-3,5 L8,-6" stroke="#ffffff" stroke-width="3" fill="none" stroke-linecap="round"/>
    </g>
    
    <g transform="translate(600, 300)">
      <circle cx="0" cy="0" r="20" fill="none" stroke="#ffffff" stroke-width="1.5"/>
      <path d="M-6,0 L-2,4 L6,-4" stroke="#ffffff" stroke-width="2" fill="none" stroke-linecap="round"/>
    </g>
    
    <g transform="translate(1600, 500)">
      <circle cx="0" cy="0" r="18" fill="none" stroke="#ffffff" stroke-width="1"/>
      <path d="M-5,0 L-2,3 L5,-4" stroke="#ffffff" stroke-width="2" fill="none" stroke-linecap="round"/>
    </g>
  </g>
  
  <!-- Subtle Light Beams -->
  <g opacity="0.03">
    <path d="M0 540 L1920 400 L1920 680 L0 820 Z" fill="#ffffff"/>
    <path d="M0 200 L1920 100 L1920 300 L0 400 Z" fill="#ffffff"/>
  </g>
</svg>